
<svg xmlns="http://www.w3.org/2000/svg" version="1.1" xmlns:xlink="http://www.w3.org/1999/xlink" preserveAspectRatio="none" x="0px" y="0px" width="2000px" height="1000px" viewBox="0 0 2000 1000">
<defs>
<g id="Layer0_1_MEMBER_0_FILL">
<path fill="#373535" stroke="none" d="
M 1219.7 618.15
Q 1219.65 615.9 1218.1 614.55 1216.65 613.35 1214.65 613.35 1212.6 613.35 1211.2 614.55 1209.65 615.85 1209.7 618.15
L 1210.2 678.3
Q 1210.5 714.4 1210.6 738.45
L 1210.7 772.15
Q 1210.7 774.45 1212.25 775.8 1213.65 777 1215.7 777 1217.75 777 1219.15 775.8 1220.7 774.45 1220.7 772.15 1220.65 732.1 1219.95 652
L 1219.7 618.15 Z"/>
</g>

<g id="Layer0_2_MEMBER_0_FILL">
<path fill="#373535" stroke="none" d="
M 1059.05 562.6
L 1072.55 568.45
Q 1075.85 569.85 1077.2 571 1078.598046875 572.1412109375 1079.2 573.45 1088.2763671875 574.1673828125 1096.3 575.05 1121.25 577.8 1142.1 583.05 1161.8 587.95 1176.25 594.8 1194.1 603.2 1205.55 615.2
L 1210.35 620.7
Q 1211.65 622.4 1213.45 622.95 1215.35 623.55 1217.2 622.5 1218.85 621.5 1219.5 619.4 1220.2 617.2 1219 615.65 1199.05 589.75 1156.6 576.7 1136 570.35 1110.8 566.8 1090.9 564 1064.05 562.5 1061.154296875 562.3421875 1058.1 562.2 1058.5642578125 562.391796875 1059.05 562.6
M 829.7 575.15
Q 822 577.8 810.2 583.2 798.4 588.6 791.4 593.9 786.65 597.5 784.15 600.65 782.8 602.3 782.75 604.2 782.65 606.2 784.15 607.7 785.55 609.1 787.7 609.15 790 609.25 791.2 607.7 793.95 604.3 798.15 601.25 801.3 599 806.3 596.3 812.95 592.7 824.35 587.9 843.8 579.85 869.55 576.45 891.481640625 573.5669921875 912.1 572.1 912.437890625 571.673046875 912.85 571.15 915.7 567.4 917.65 565.65 919.4841796875 563.9646484375 923.05 561.55 900.9603515625 562.598828125 880.1 565.1 863.4 567.15 854.6 568.75 840.55 571.3 829.7 575.15 Z"/>
</g>

<g id="Layer0_3_MEMBER_0_FILL">
<path fill="#373535" stroke="none" d="
M 783.1 606.35
Q 783.45 608.35 785.45 609.5 794.2 614.4 804.6 619.2 811.55 622.4 813.55 623.3 818.65 625.55 822.75 626.9 830.65 629.6 841.3 632 843.85 632.55 860.15 635.8 869.4 637.65 881.55 639.3 885.1 639.75 903.05 641.95 930.05 645.2 946.7 646.05 956 646.5 968.9 646.9 976.3 647.1 991.05 647.45 1016.95 648.1 1034.6 647.65 1044.05 647.45 1056.8 646.65 1064.2 646.15 1078.95 645.1 1086.3 644.6 1100.95 643.6 1113.55 642.7 1122.95 641.7 1133.15 640.65 1147.25 638.75 1155.35 637.7 1171.5 635.5 1178.9 634.5 1183.2 633.75 1189.6 632.65 1194.7 631.25 1206.25 627.95 1217.2 622.5 1219.25 621.45 1219.65 619.5 1220 617.75 1219 616 1217.95 614.25 1216.15 613.6 1214.2 612.85 1212.15 613.85 1195.45 622.15 1174.05 625.15 1155.25 627.75 1131.2 630.75 1116.95 632.55 1088.25 634.45 1073.7 635.55 1066.4 636.05 1053.4 637 1044.5 637.35 1025.2 638.1 1001 637.75 986.45 637.5 957.45 636.5 933.55 635.65 914.55 633.4 900.6 631.8 893.6 630.95 881.25 629.5 872.7 628.05 847.15 623.75 831.05 619.05 822.6 616.6 811.35 611.35 798.95 605.65 790.5 600.85 788.5 599.75 786.55 600.4 784.8 601.05 783.8 602.8 782.75 604.55 783.1 606.35 Z"/>
</g>

<g id="Layer0_4_MEMBER_0_FILL">
<path fill="#373535" stroke="none" d="
M 784.15 601.55
Q 782.55 602.9 782.5 605.2 781.05 666.85 782.15 726.15 782.4 741.4 783 760.5 783.05 762.75 784.7 764.1 786.1 765.3 788.15 765.3 790.2 765.35 791.55 764.1 793.05 762.8 793 760.5 791.15 700.6 791.9 639.55 792 628.1 792.5 605.2 792.55 602.9 791 601.55 789.65 600.35 787.6 600.35 785.6 600.35 784.15 601.55 Z"/>
</g>

<g id="Layer0_5_MEMBER_0_FILL">
<path fill="#373535" stroke="none" d="
M 784.7 756.95
Q 781.2 760.5 784.45 764.05 790.3 770.5 799.1 775.2 806.3 779.05 816.3 782.2 833.15 787.5 855.7 792 893.65 799.55 942.75 802.4 972.05 804.1 987.9 804.8 1012.9 805.85 1033.05 805.8 1077.55 805.65 1120.75 799.4 1168.95 792.45 1215.85 777.65 1218.05 776.95 1218.9 775.05 1219.7 773.3 1219.15 771.35 1218.65 769.4 1217.1 768.4 1215.4 767.3 1213.2 768 1131.2 793.9 1045.45 795.65 1025.25 796.05 1000.8 795.25 983.65 794.7 956.15 793.15 930.65 791.7 913.7 790.15 890.6 788 871.45 784.75 848.55 780.85 825.8 774.6 814.2 771.35 807.35 768.15 797.6 763.6 791.5 756.95 789.95 755.25 787.95 755.4 786.15 755.5 784.7 756.95 Z"/>
</g>

<g id="Layer0_6_MEMBER_0_FILL">
<path fill="#373535" stroke="none" d="
M 789.75 641.8
Q 786.85 640.15 785.05 643.2 783.3 646.2 786.2 647.85 793.9 652.25 805.35 657.55 817.05 663.05 823.15 665.15 831 667.85 841.7 670.2 844.1 670.7 860.55 674 869.85 675.85 881.75 677.45 887.5 678.25 903.05 680.1 930.85 683.45 946.7 684.2 959.6 684.85 991.05 685.6 1016.75 686.2 1034.6 685.85 1044 685.65 1056.8 684.8 1064.2 684.3 1078.95 683.25 1086.3 682.75 1100.95 681.75 1113.55 680.85 1122.95 679.85 1133.15 678.8 1147.25 676.9 1155.35 675.85 1171.5 673.65 1186.05 671.75 1194.3 669.45 1205.6 666.25 1216.45 660.85 1219.45 659.35 1217.7 656.35 1215.95 653.3 1212.9 654.8 1196.05 663.25 1174.45 666.25 1156.1 668.8 1131.2 671.9 1117.85 673.6 1088.25 675.65 1059.1 677.95 1044.5 678.55 1025.25 679.3 1001 678.9 987.15 678.7 957.45 677.65 932.8 676.8 914.55 674.55 900.45 672.95 893.35 672.1 880.95 670.65 872.3 669.15 846.25 664.75 830.65 660.2 822.25 657.7 810.6 652.3 798.2 646.6 789.75 641.8 Z"/>
</g>

<g id="Layer0_7_MEMBER_0_FILL">
<path fill="#373535" stroke="none" d="
M 784.7 685.2
Q 782.95 688.2 785.9 689.85 793.65 694.3 805.05 699.55 816.9 705.1 822.8 707.15 830.7 709.85 841.35 712.2 844 712.75 860.25 716 869.5 717.85 881.4 719.45 887.15 720.25 902.7 722.1 930.45 725.45 946.4 726.2 959.25 726.85 990.7 727.6 1016.4 728.2 1034.3 727.85 1043.65 727.65 1056.5 726.8 1063.85 726.3 1078.65 725.25 1086 724.75 1100.65 723.75 1113.25 722.85 1122.6 721.85 1132.85 720.8 1146.9 718.9 1155 717.85 1171.15 715.65 1185.8 713.75 1194 711.45 1205.3 708.25 1216.1 702.85 1219.15 701.35 1217.35 698.35 1215.6 695.3 1212.6 696.8 1195.65 705.3 1174.1 708.25 1156.1 710.75 1130.9 713.9 1117.5 715.6 1087.9 717.65 1058.8 719.95 1044.2 720.55 1024.95 721.3 1000.65 720.9 986.8 720.7 957.1 719.65 932.4 718.8 914.2 716.55 900.1 714.95 893.05 714.1 880.6 712.65 871.95 711.15 846 706.75 830.35 702.2 822.15 699.8 810.25 694.3 797.85 688.6 789.4 683.8 786.45 682.15 784.7 685.2 Z"/>
</g>

<g id="Layer0_8_MEMBER_0_FILL">
<path fill="#373535" stroke="none" d="
M 785.05 722.2
Q 783.3 725.2 786.2 726.85 793.9 731.25 805.35 736.55 817.05 742.05 823.15 744.15 831 746.85 841.7 749.2 844.1 749.7 860.55 753 869.85 754.85 881.75 756.45 887.5 757.25 903.05 759.1 930.85 762.45 946.7 763.2 959.6 763.85 991.05 764.6 1016.75 765.2 1034.6 764.85 1044 764.65 1056.8 763.8 1064.2 763.3 1078.95 762.25 1086.3 761.75 1100.95 760.75 1113.55 759.85 1122.95 758.85 1133.15 757.8 1147.25 755.9 1155.35 754.85 1171.5 752.65 1186.05 750.75 1194.3 748.45 1205.6 745.25 1216.45 739.85 1219.45 738.35 1217.7 735.35 1215.95 732.3 1212.9 733.8 1196.05 742.25 1174.45 745.25 1156.1 747.8 1131.2 750.9 1117.85 752.6 1088.25 754.65 1059.1 756.95 1044.5 757.55 1025.25 758.3 1001 757.9 987.15 757.7 957.45 756.65 932.8 755.8 914.55 753.55 900.45 751.95 893.35 751.1 880.95 749.65 872.3 748.15 846.25 743.75 830.65 739.2 822.25 736.7 810.6 731.3 798.2 725.6 789.75 720.8 786.85 719.15 785.05 722.2 Z"/>
</g>

<g id="Layer0_31_MEMBER_0_FILL">
<path fill="#373535" stroke="none" d="
M 1095.65 578.85
Q 1098.825390625 580.411328125 1099.8 580.85 1100.85 581.3 1102.9 582.2 1104.65 583 1105.8 583.8 1107.3 584.85 1108.15 586.25 1108.8416015625 587.441015625 1108.95 588.65 1118.2748046875 589.9830078125 1126.7 591.6 1145 595.15 1157.65 599.3 1174.35 604.75 1186.5 612.65 1189.25 614.45 1191.65 616.35 1192.9 617.3 1194.65 616.75 1196.35 616.25 1197.15 614.9 1198 613.45 1197.5 611.9 1197.05 610.5 1195.7 609.45 1184.35 600.65 1168.1 594.5 1155.6 589.7 1137.85 585.75 1118.7 581.5 1096.3 578.95 1095.98359375 578.9150390625 1095.65 578.85
M 849.25 584
Q 838.75 586.75 831.85 589.1 822.3 592.4 815.3 596.3 811.5 598.45 808.85 600.9 806 603.5 808.85 606.3 811.65 609.15 814.5 606.55 816.95 604.3 820.85 602.3 823.2 601.15 827.85 599.25 834.15 596.85 845 593.55 862.1 588.4 886.2 586.15 886.9533203125 586.0763671875 887.7 586 888.2775390625 585.3939453125 889.35 584.25 889.75 583.85 891.2 582.05 892.35 580.65 893.2 579.9 894.9140625 578.3310546875 897.45 577.1 895.734375 577.2458984375 894 577.4 879.45 578.7 871.5 579.8 859.05 581.45 849.25 584 Z"/>
</g>

<g id="Layer0_32_MEMBER_0_FILL">
<path fill="#373535" stroke="none" d="
M 808.1 605
Q 808.5 606.8 809.95 607.4 829.85 616.1 844.4 619.75 851.45 621.55 861.05 623.15 866.65 624.1 877.85 625.75 886 627 896.95 628.1 903.3 628.75 916.1 629.9 938.9 632.05 954.1 632.6 997.85 634.3 1032.35 633.75 1040.75 633.6 1052.15 633 1058.7 632.7 1071.9 631.95 1078.3 631.65 1091.05 631 1102 630.4 1110.15 629.75 1119.15 629.05 1131.75 627.75 1138.9 627.05 1153.3 625.55 1165.35 624.3 1174.3 622.55 1185.4 620.35 1194.75 616.75 1196.35 616.1 1197.15 614.8 1198 613.4 1197.55 611.8 1197.1 610.3 1195.65 609.4 1194.1 608.45 1192.6 609.05 1176.8 615.05 1157.2 617.15
L 1118.9 621
Q 1110.45 621.8 1099.8 622.45 1093.45 622.85 1080.7 623.5 1078.85 623.6 1061.5 624.6 1049.9 625.25 1042.3 625.5 1025.2 626.05 1003.6 625.75 991.6 625.6 964.9 624.95 929.1 624.1 889.65 619.35 867.75 616.75 851.55 613.2 834.95 609.65 813.95 600.5 812.4 599.8 810.95 600.15 809.35 600.5 808.5 601.95 807.7 603.25 808.1 605 Z"/>
</g>

<g id="Layer0_48_MEMBER_0_FILL">
<path fill="#373535" stroke="none" d="
M 883.9 610.05
Q 883.9 606.55 880.55 606.9 860.55 608.95 845.25 612.7 841.95 613.55 842.9 616.9 843.8 620.3 847.1 619.45 861.8 615.85 880.55 613.9 883.9 613.55 883.9 610.05 Z"/>
</g>

<g id="Layer0_49_MEMBER_0_FILL">
<path fill="#373535" stroke="none" d="
M 1116.05 614.7
Q 1116.05 618.2 1119.35 618.55 1126.3 619.25 1135.8 621.2 1141.25 622.35 1152.1 624.7 1155.35 625.4 1156.3 622 1157.25 618.65 1153.95 617.95 1142.5 615.5 1136.75 614.3 1126.75 612.3 1119.35 611.55 1116 611.2 1116.05 614.7 Z"/>
</g>

<g id="Layer0_50_MEMBER_0_FILL">
<path fill="#373535" stroke="none" d="
M 941.05 593.4
Q 938.25 593.05 931.7 593.25 919.5 593.75 913.55 594.95 907.45 596.15 900.25 599 896 600.65 887.45 604.6 885.05 605.75 884.25 606.65 882.4 608.5 881.1 609.85 878.6 612.4 878.25 613.3 877.5 615.3 877.05 617.45 876.55 618.85 874.3 620.2
L 1129.1 622.25
Q 1126.75 619.45 1120.25 614.4 1113.7 609.3 1111.4 606.6 1107.65 602.25 1105.2 600.75 1103.55 599.75 1101.2 599.05 1099.85 598.65 1096.9 598.05
L 1077.95 594.05
Q 1073.65 593.1 1071.15 593.2 1069.7 593.3 1067.7 593.75 1065.4 594.3 1064.25 594.55 1059.95 595.5 1054.55 595.5 1051.15 595.5 1044.8 595
L 1024.5 593.55
Q 1021.35 593.3 1013.65 591.45 1006.3 589.65 1002.8 589.5 993.8 589.15 981.4 590.9 967.45 593.2 960.05 594.05 951.8 595 948.3 594.6 947 594.45 944.7 594 942.2 593.55 941.05 593.4 Z"/>
</g>

<g id="Layer0_50_MEMBER_1_MEMBER_0_FILL">
<path fill="#373535" stroke="none" d="
M 927.85 589.95
Q 918.6 590.4 912.6 591.6 905.95 592.9 896.7 596.65
L 889.05 600
Q 886.75 601 885.55 601.6 883.55 602.55 882.35 603.65 878.45 607.05 876 610.3 874.8 611.95 874.1 614.9 873.75 616.15 873.7 616.3 873.55 616.55 872.5 617.2 869.65 618.95 871.4 622 873.15 625 876.05 623.25 878.05 622 879.15 620.55 880.3 619 880.85 616.75 881.3 615 882.4 613.55 882.95 612.9 885 610.9 885.4 610.5 886.2 609.65 886.95 608.85 887.5 608.5 888.7 607.7 890.65 606.85 891.75 606.4 893.9 605.5 901.35 602.1 907.3 600.2 918.85 596.55 936.4 596.65 938.9 596.65 943.35 597.4 948.1 598.15 950.25 598.25 953.55 598.4 958 597.85 960.6 597.55 965.75 596.8 970.4 596.15 979.7 594.65 988 593.45 993.8 593.1 1002.35 592.6 1007.15 593.55 1009.25 593.95 1013.35 594.95 1017.45 595.95 1019.5 596.35 1022.35 596.9 1026.35 597.2 1028.65 597.4 1033.2 597.7
L 1048.05 598.75
Q 1056.4 599.25 1062.45 598.45 1064.65 598.15 1068.85 597.2 1072.55 596.55 1075.35 597.05
L 1091.7 600.5
Q 1098.35 601.85 1099.35 602.15 1103.55 603.45 1106.05 605.9 1107.7 607.55 1110.8 610.75 1113.6 613.55 1115.85 615.35 1117.7 616.85 1121.45 619.8 1124.65 622.45 1126.65 624.7 1128.9 627.25 1131.35 624.75 1133.8 622.25 1131.6 619.75 1128.8 616.6 1122.2 611.3 1115.6 606.05 1112.75 602.85 1107.8 597.2 1101.25 595.45 1098.3 594.65 1093.9 593.75 1088.95 592.8 1086.45 592.25 1081.7 591.15 1079.3 590.6 1075.05 589.75 1072.05 589.7 1069.45 589.65 1064.9 590.7 1059.95 591.8 1057.8 591.9 1051.65 592.25 1042.85 591.55 1032.85 590.65 1027.9 590.3 1023.8 590 1015.1 588 1006.85 586.15 1002.35 585.95 995.75 585.7 987.45 586.65 982.7 587.15 972.7 588.75 963.15 590.25 958.1 590.8 955.05 591.1 954.2 591.15 951.95 591.3 950.25 591.25 948.7 591.2 946.55 590.8 944.15 590.35 942.9 590.15 939.6 589.65 935.4 589.65 933.5 589.65 927.85 589.95 Z"/>
</g>

<g id="Layer0_51_MEMBER_0_FILL">
<path fill="#373535" stroke="none" d="
M 1077.35 624.25
L 1118.65 622.5 876.65 617.75
Q 920.65 625.9 976.65 626.65 1010.3 627.1 1077.35 624.25 Z"/>
</g>

<g id="Layer0_51_MEMBER_1_MEMBER_0_FILL">
<path fill="#373535" stroke="none" d="
M 873.35 617.15
Q 872.4 620.5 875.75 621.1 917.8 628.8 970 629.95 1005.4 630.75 1064.7 628.3
L 1118.65 626
Q 1122 625.85 1122 622.35 1122 618.85 1118.65 619 1030.35 622.75 1024.6 622.9 970.9 624.3 930.55 621.15 902.15 618.9 877.6 614.35 874.3 613.75 873.35 617.15 Z"/>
</g>

<path id="Layer0_0_1_STROKES" stroke="#373535" stroke-width="10" stroke-linejoin="round" stroke-linecap="round" fill="none" d="
M 875.75 618
Q 873 611.9 874.9 604.3 876.55 597.65 881.25 591.5 889.55 580.45 907.1 570.75 910.8 568.65 922.3 562.85 931.8 558 937.25 554.75 937.1 557.55 937.9 559.55 938.85 562.05 941 562.1 942.4 562.25 944.6 560.75 953.4 554.65 959.85 549.6 961.1 551.75 963.5 555.85 977.1 546.35 985.25 531.25 986.9 535.15 993.25 549.5 999.95 540.75 1004 530
L 1014.1 552.6
Q 1017.85 549.95 1019.1 545.25
L 1033.75 559.6
Q 1035.85 553.5 1036.85 550.5 1047.95 561 1062.75 564.25 1063.1 562.35 1064.1 558.85 1072.6 567.35 1083.1 572.6 1086.8 574.5 1094.45 577.8 1101.1 580.95 1105 584.25 1110.5 588.95 1113.45 595.85 1116.35 602.75 1115.85 610"/>

<path id="Layer0_0_2_STROKES" stroke="#373535" stroke-width="5" stroke-linejoin="round" stroke-linecap="round" fill="none" d="
M 1034 594.75
Q 1033.6 592.4 1032.75 590.25 1027.95 584.9 1021.75 581.5 1020.95 581.1 1020.35 581.1 1020 581.2 1019.65 581.65 1019.2 582.15 1019 582.25 1018.3 582.7 1017.3 582.35 1016.45 582.1 1015.75 581.35 1015.05 580.35 1014.65 579.85 1014 579.05 1013.35 578.75 1012.7 578.3 1012.25 578.5 1011.85 578.65 1011.6 579.15 1011.15 579.95 1011.1 580 1010.55 581.1 1009.15 581.35 1007.8 581.6 1006.85 580.85 1006.6 580.7 1005.2 579.05 1004.2 577.9 1003.25 578 1002.35 578.05 1001.35 579.35 1000.25 580.8 999.6 581 998.55 581.3 997.35 580.5 997.2 580.35 995.35 578.75 994.65 578.25 994.25 578.25 993.5 578.25 993 579.25 992.1 580.25 990.6 582.25 989.9 583.25 989.25 583.1 988.95 583.1 988.35 582.5
L 984 577.75
Q 980.85 580.15 978.85 582 978.5 581.7 978.2 580.5 977.95 579.35 977.35 579.1 976.75 578.95 976.1 579.35 971.6 581.6 968.35 585.65 965.1 589.7 963.85 594.6"/>

<path id="Layer0_9_1_STROKES" stroke="#373535" stroke-width="7" stroke-linejoin="round" stroke-linecap="round" fill="none" d="
M 819.1 620.25
L 819.1 659.2"/>

<path id="Layer0_10_1_STROKES" stroke="#373535" stroke-width="7" stroke-linejoin="round" stroke-linecap="round" fill="none" d="
M 845 667.3
L 845 709.2"/>

<path id="Layer0_11_1_STROKES" stroke="#373535" stroke-width="7" stroke-linejoin="round" stroke-linecap="round" fill="none" d="
M 887.35 636.85
L 887.35 674.25"/>

<path id="Layer0_12_1_STROKES" stroke="#373535" stroke-width="7" stroke-linejoin="round" stroke-linecap="round" fill="none" d="
M 924.75 679.15
L 924.75 720.75"/>

<path id="Layer0_13_1_STROKES" stroke="#373535" stroke-width="7" stroke-linejoin="round" stroke-linecap="round" fill="none" d="
M 965 642.8
L 965 681.4"/>

<path id="Layer0_14_1_STROKES" stroke="#373535" stroke-width="7" stroke-linejoin="round" stroke-linecap="round" fill="none" d="
M 1012 682.85
L 1012 723.85"/>

<path id="Layer0_15_1_STROKES" stroke="#373535" stroke-width="7" stroke-linejoin="round" stroke-linecap="round" fill="none" d="
M 1050.35 642.8
L 1050.35 681.4"/>

<path id="Layer0_16_1_STROKES" stroke="#373535" stroke-width="7" stroke-linejoin="round" stroke-linecap="round" fill="none" d="
M 1100.65 678.3
L 1100.65 720.15"/>

<path id="Layer0_17_1_STROKES" stroke="#373535" stroke-width="7" stroke-linejoin="round" stroke-linecap="round" fill="none" d="
M 1132 638.15
L 1132 674.25"/>

<path id="Layer0_18_1_STROKES" stroke="#373535" stroke-width="7" stroke-linejoin="round" stroke-linecap="round" fill="none" d="
M 1167.25 670.7
L 1167.25 711.6"/>

<path id="Layer0_19_1_STROKES" stroke="#373535" stroke-width="7" stroke-linejoin="round" stroke-linecap="round" fill="none" d="
M 1193.7 628.5
L 1193.7 664.8"/>

<path id="Layer0_20_1_STROKES" stroke="#373535" stroke-width="7" stroke-linejoin="round" stroke-linecap="round" fill="none" d="
M 815.25 700.4
L 815.25 737.4"/>

<path id="Layer0_21_1_STROKES" stroke="#373535" stroke-width="7" stroke-linejoin="round" stroke-linecap="round" fill="none" d="
M 887.35 716.8
L 887.35 753.8"/>

<path id="Layer0_22_1_STROKES" stroke="#373535" stroke-width="7" stroke-linejoin="round" stroke-linecap="round" fill="none" d="
M 970.3 723.55
L 970.3 760.5"/>

<path id="Layer0_23_1_STROKES" stroke="#373535" stroke-width="7" stroke-linejoin="round" stroke-linecap="round" fill="none" d="
M 1058.75 723.25
L 1058.75 760.25"/>

<path id="Layer0_24_1_STROKES" stroke="#373535" stroke-width="7" stroke-linejoin="round" stroke-linecap="round" fill="none" d="
M 1136.2 716.7
L 1136.2 751.15"/>

<path id="Layer0_25_1_STROKES" stroke="#373535" stroke-width="7" stroke-linejoin="round" stroke-linecap="round" fill="none" d="
M 1199.05 706.25
L 1199.05 743.25"/>

<path id="Layer0_26_1_STROKES" stroke="#373535" stroke-width="7" stroke-linejoin="round" stroke-linecap="round" fill="none" d="
M 847.65 746.9
L 847.65 785.45"/>

<path id="Layer0_27_1_STROKES" stroke="#373535" stroke-width="7" stroke-linejoin="round" stroke-linecap="round" fill="none" d="
M 924.75 758.15
L 924.75 794.15"/>

<path id="Layer0_28_1_STROKES" stroke="#373535" stroke-width="7" stroke-linejoin="round" stroke-linecap="round" fill="none" d="
M 1015.65 761.5
L 1015.65 800.65"/>

<path id="Layer0_29_1_STROKES" stroke="#373535" stroke-width="7" stroke-linejoin="round" stroke-linecap="round" fill="none" d="
M 1102.4 757.15
L 1102.4 796.5"/>

<path id="Layer0_30_1_STROKES" stroke="#373535" stroke-width="7" stroke-linejoin="round" stroke-linecap="round" fill="none" d="
M 1173.3 748.9
L 1173.3 784.25"/>

<path id="Layer0_33_1_STROKES" stroke="#373535" stroke-width="8" stroke-linejoin="round" stroke-linecap="round" fill="none" d="
M 819.1 620.25
L 836.65 613.3"/>

<path id="Layer0_34_1_STROKES" stroke="#373535" stroke-width="8" stroke-linejoin="round" stroke-linecap="round" fill="none" d="
M 887.35 636.85
L 895.3 624"/>

<path id="Layer0_35_1_STROKES" stroke="#373535" stroke-width="8" stroke-linejoin="round" stroke-linecap="round" fill="none" d="
M 965 642.8
L 965 630.4"/>

<path id="Layer0_36_1_STROKES" stroke="#373535" stroke-width="8" stroke-linejoin="round" stroke-linecap="round" fill="none" d="
M 1050.35 642.8
L 1041.35 630.4"/>

<path id="Layer0_37_1_STROKES" stroke="#373535" stroke-width="8" stroke-linejoin="round" stroke-linecap="round" fill="none" d="
M 1132 634.5
L 1118.3 626.35"/>

<path id="Layer0_38_1_STROKES" stroke="#373535" stroke-width="8" stroke-linejoin="round" stroke-linecap="round" fill="none" d="
M 1193.7 628.5
L 1176.35 618.15"/>

<path id="Layer0_39_1_STROKES" stroke="#373535" stroke-width="8" stroke-linejoin="round" stroke-linecap="round" fill="none" d="
M 815.25 589.15
L 827.9 595"/>

<path id="Layer0_40_1_STROKES" stroke="#373535" stroke-width="8" stroke-linejoin="round" stroke-linecap="round" fill="none" d="
M 852.55 574.2
L 865.4 584.75"/>

<path id="Layer0_41_1_STROKES" stroke="#373535" stroke-width="8" stroke-linejoin="round" stroke-linecap="round" fill="none" d="
M 1150.65 580.15
L 1140 587.85"/>

<path id="Layer0_42_1_STROKES" stroke="#373535" stroke-width="8" stroke-linejoin="round" stroke-linecap="round" fill="none" d="
M 1185 595
L 1173.3 601.1"/>

<path id="Layer0_44_1_STROKES" stroke="#373535" stroke-width="7" stroke-linejoin="round" stroke-linecap="round" fill="none" d="
M 1140 591
L 1140 616.9"/>

<path id="Layer0_45_1_STROKES" stroke="#373535" stroke-width="7" stroke-linejoin="round" stroke-linecap="round" fill="none" d="
M 1176.35 602.5
L 1176.35 616.75"/>

<path id="Layer0_46_1_STROKES" stroke="#373535" stroke-width="7" stroke-linejoin="round" stroke-linecap="round" fill="none" d="
M 865.4 584.75
L 865.4 609.65"/>

<path id="Layer0_47_1_STROKES" stroke="#373535" stroke-width="7" stroke-linejoin="round" stroke-linecap="round" fill="none" d="
M 826.1 595.7
L 826.1 606.4"/>
</defs>

<g transform="matrix( 1, 0, 0, 1, 0,0) ">
<use xlink:href="#Layer0_0_1_STROKES"/>

<use xlink:href="#Layer0_0_2_STROKES"/>
</g>

<g transform="matrix( 1, 0, 0, 1, 0,0) ">
<use xlink:href="#Layer0_1_MEMBER_0_FILL"/>
</g>

<g transform="matrix( 1, 0, 0, 1, 0,0) ">
<use xlink:href="#Layer0_2_MEMBER_0_FILL"/>
</g>

<g transform="matrix( 1, 0, 0, 1, 0,0) ">
<use xlink:href="#Layer0_3_MEMBER_0_FILL"/>
</g>

<g transform="matrix( 1, 0, 0, 1, 0,0) ">
<use xlink:href="#Layer0_4_MEMBER_0_FILL"/>
</g>

<g transform="matrix( 1, 0, 0, 1, 0,0) ">
<use xlink:href="#Layer0_5_MEMBER_0_FILL"/>
</g>

<g transform="matrix( 1, 0, 0, 1, 0,0) ">
<use xlink:href="#Layer0_6_MEMBER_0_FILL"/>
</g>

<g transform="matrix( 1, 0, 0, 1, 0,0) ">
<use xlink:href="#Layer0_7_MEMBER_0_FILL"/>
</g>

<g transform="matrix( 1, 0, 0, 1, 0,0) ">
<use xlink:href="#Layer0_8_MEMBER_0_FILL"/>
</g>

<g transform="matrix( 1, 0, 0, 1, 0,0) ">
<use xlink:href="#Layer0_9_1_STROKES"/>
</g>

<g transform="matrix( 1, 0, 0, 1, 0,0) ">
<use xlink:href="#Layer0_10_1_STROKES"/>
</g>

<g transform="matrix( 1, 0, 0, 1, 0,0) ">
<use xlink:href="#Layer0_11_1_STROKES"/>
</g>

<g transform="matrix( 1, 0, 0, 1, 0,0) ">
<use xlink:href="#Layer0_12_1_STROKES"/>
</g>

<g transform="matrix( 1, 0, 0, 1, 0,0) ">
<use xlink:href="#Layer0_13_1_STROKES"/>
</g>

<g transform="matrix( 1, 0, 0, 1, 0,0) ">
<use xlink:href="#Layer0_14_1_STROKES"/>
</g>

<g transform="matrix( 1, 0, 0, 1, 0,0) ">
<use xlink:href="#Layer0_15_1_STROKES"/>
</g>

<g transform="matrix( 1, 0, 0, 1, 0,0) ">
<use xlink:href="#Layer0_16_1_STROKES"/>
</g>

<g transform="matrix( 1, 0, 0, 1, 0,0) ">
<use xlink:href="#Layer0_17_1_STROKES"/>
</g>

<g transform="matrix( 1, 0, 0, 1, 0,0) ">
<use xlink:href="#Layer0_18_1_STROKES"/>
</g>

<g transform="matrix( 1, 0, 0, 1, 0,0) ">
<use xlink:href="#Layer0_19_1_STROKES"/>
</g>

<g transform="matrix( 1, 0, 0, 1, 0,0) ">
<use xlink:href="#Layer0_20_1_STROKES"/>
</g>

<g transform="matrix( 1, 0, 0, 1, 0,0) ">
<use xlink:href="#Layer0_21_1_STROKES"/>
</g>

<g transform="matrix( 1, 0, 0, 1, 0,0) ">
<use xlink:href="#Layer0_22_1_STROKES"/>
</g>

<g transform="matrix( 1, 0, 0, 1, 0,0) ">
<use xlink:href="#Layer0_23_1_STROKES"/>
</g>

<g transform="matrix( 1, 0, 0, 1, 0,0) ">
<use xlink:href="#Layer0_24_1_STROKES"/>
</g>

<g transform="matrix( 1, 0, 0, 1, 0,0) ">
<use xlink:href="#Layer0_25_1_STROKES"/>
</g>

<g transform="matrix( 1, 0, 0, 1, 0,0) ">
<use xlink:href="#Layer0_26_1_STROKES"/>
</g>

<g transform="matrix( 1, 0, 0, 1, 0,0) ">
<use xlink:href="#Layer0_27_1_STROKES"/>
</g>

<g transform="matrix( 1, 0, 0, 1, 0,0) ">
<use xlink:href="#Layer0_28_1_STROKES"/>
</g>

<g transform="matrix( 1, 0, 0, 1, 0,0) ">
<use xlink:href="#Layer0_29_1_STROKES"/>
</g>

<g transform="matrix( 1, 0, 0, 1, 0,0) ">
<use xlink:href="#Layer0_30_1_STROKES"/>
</g>

<g transform="matrix( 1, 0, 0, 1, 0,0) ">
<use xlink:href="#Layer0_31_MEMBER_0_FILL"/>
</g>

<g transform="matrix( 1, 0, 0, 1, 0,0) ">
<use xlink:href="#Layer0_32_MEMBER_0_FILL"/>
</g>

<g transform="matrix( 1, 0, 0, 1, 0,0) ">
<use xlink:href="#Layer0_33_1_STROKES"/>
</g>

<g transform="matrix( 1, 0, 0, 1, 0,0) ">
<use xlink:href="#Layer0_34_1_STROKES"/>
</g>

<g transform="matrix( 1, 0, 0, 1, 0,0) ">
<use xlink:href="#Layer0_35_1_STROKES"/>
</g>

<g transform="matrix( 1, 0, 0, 1, 0,0) ">
<use xlink:href="#Layer0_36_1_STROKES"/>
</g>

<g transform="matrix( 1, 0, 0, 1, 0,0) ">
<use xlink:href="#Layer0_37_1_STROKES"/>
</g>

<g transform="matrix( 1, 0, 0, 1, 0,0) ">
<use xlink:href="#Layer0_38_1_STROKES"/>
</g>

<g transform="matrix( 1, 0, 0, 1, 0,0) ">
<use xlink:href="#Layer0_39_1_STROKES"/>
</g>

<g transform="matrix( 1, 0, 0, 1, 0,0) ">
<use xlink:href="#Layer0_40_1_STROKES"/>
</g>

<g transform="matrix( 1, 0, 0, 1, 0,0) ">
<use xlink:href="#Layer0_41_1_STROKES"/>
</g>

<g transform="matrix( 1, 0, 0, 1, 0,0) ">
<use xlink:href="#Layer0_42_1_STROKES"/>
</g>

<g transform="matrix( 1, 0, 0, 1, 0,0) ">
<use xlink:href="#Layer0_44_1_STROKES"/>
</g>

<g transform="matrix( 1, 0, 0, 1, 0,0) ">
<use xlink:href="#Layer0_45_1_STROKES"/>
</g>

<g transform="matrix( 1, 0, 0, 1, 0,0) ">
<use xlink:href="#Layer0_46_1_STROKES"/>
</g>

<g transform="matrix( 1, 0, 0, 1, 0,0) ">
<use xlink:href="#Layer0_47_1_STROKES"/>
</g>

<g transform="matrix( 1, 0, 0, 1, 0,0) ">
<use xlink:href="#Layer0_48_MEMBER_0_FILL"/>
</g>

<g transform="matrix( 1, 0, 0, 1, 0,0) ">
<use xlink:href="#Layer0_49_MEMBER_0_FILL"/>
</g>

<g transform="matrix( 1, 0, 0, 1, 0,0) ">
<use xlink:href="#Layer0_50_MEMBER_0_FILL"/>
</g>

<g transform="matrix( 1, 0, 0, 1, 0,0) ">
<use xlink:href="#Layer0_50_MEMBER_1_MEMBER_0_FILL"/>
</g>

<g transform="matrix( 1, 0, 0, 1, 0,0) ">
<use xlink:href="#Layer0_51_MEMBER_0_FILL"/>
</g>

<g transform="matrix( 1, 0, 0, 1, 0,0) ">
<use xlink:href="#Layer0_51_MEMBER_1_MEMBER_0_FILL"/>
</g>
</svg>
